<?xml version="1.0" standalone="no"?><!DOCTYPE svg PUBLIC "-//W3C//DTD SVG 1.1//EN" "http://www.w3.org/Graphics/SVG/1.1/DTD/svg11.dtd"><svg t="1707965666133" class="icon" viewBox="0 0 1024 1024" version="1.1" xmlns="http://www.w3.org/2000/svg" p-id="15701" xmlns:xlink="http://www.w3.org/1999/xlink" width="200" height="200"><path d="M866.122267 358.420799c-13.098257 0-26.196515-4.991844-36.180203-15.018197l-255.992-255.992c-20.010041-20.010041-20.010041-52.393029 0-72.403071s52.393029-20.010041 72.403071 0l255.992 255.992c20.010041 20.010041 20.010041 52.393029 0 72.403071A51.044805 51.044805 0 0 1 866.122267 358.420799z" p-id="15702" fill="#6AABFF"></path><path d="M866.122267 256.023999h-204.7936V51.230399c0-28.287116-22.911284-51.1984-51.1984-51.1984H200.543066C144.09683 0.031999 98.146266 45.939898 98.146266 102.428799v819.174401c0 56.488901 45.950564 102.3968 102.3968 102.3968h614.380801c56.446236 0 102.3968-45.907899 102.3968-102.3968V307.222399c0-28.287116-22.911284-51.1984-51.1984-51.1984z m-307.1904 102.3968c28.287116 0 51.1984 22.911284 51.1984 51.1984s-22.911284 51.1984-51.1984 51.1984-51.1984-22.911284-51.1984-51.1984 22.911284-51.1984 51.1984-51.1984zM149.344666 819.2064l220.537109-358.388801 165.413497 238.925867 165.413498-179.1944L866.122267 819.2064H149.344666z" p-id="15703" fill="#6AABFF"></path></svg>