<?xml version="1.0" standalone="no"?><!DOCTYPE svg PUBLIC "-//W3C//DTD SVG 1.1//EN" "http://www.w3.org/Graphics/SVG/1.1/DTD/svg11.dtd"><svg t="1707968133558" class="icon" viewBox="0 0 1024 1024" version="1.1" xmlns="http://www.w3.org/2000/svg" p-id="42312" xmlns:xlink="http://www.w3.org/1999/xlink" width="200" height="200"><path d="M841.142354 1023.999634H182.85711a109.028494 109.028494 0 0 1-77.58623-32.13712A108.991922 108.991922 0 0 1 73.142903 914.285427V109.714573a108.982779 108.982779 0 0 1 32.127977-77.567945A109.010208 109.010208 0 0 1 182.85711 0.000366h402.285427v255.999817a109.842207 109.842207 0 0 0 109.714207 109.714207h255.999818v548.571037a108.991922 108.991922 0 0 1-32.127977 77.577087A109.019351 109.019351 0 0 1 841.142354 1023.999634zM409.672948 461.714322a31.743977 31.743977 0 0 0-23.241126 9.636564 40.137114 40.137114 0 0 0-9.746279 30.399978V743.31412a47.186252 47.186252 0 0 0 4.690283 16.923417A29.595407 29.595407 0 0 0 409.398663 777.142668a76.909659 76.909659 0 0 0 31.542834-8.438851l184.959868-117.403345a35.373689 35.373689 0 0 0 21.430842-30.637692 34.962261 34.962261 0 0 0-19.574843-32.338263L437.238643 473.435456a39.314258 39.314258 0 0 0-27.565695-11.721134z m282.367799-171.455878a36.635402 36.635402 0 0 1-31.451407-31.451406l0.585143-215.862703a35.757689 35.757689 0 0 1 8.438851-28.699408 37.94283 37.94283 0 0 1 28.141694-12.799991 35.547403 35.547403 0 0 1 25.535982 10.825135L938.56857 227.565917a35.92226 35.92226 0 0 1 7.972566 39.753115 35.812546 35.812546 0 0 1-33.444547 22.701698 39.716543 39.716543 0 0 1-5.202282-0.347428l-215.862703 0.585142z" fill="#6AABFF" p-id="42313"></path></svg>