<?xml version="1.0" standalone="no"?><!DOCTYPE svg PUBLIC "-//W3C//DTD SVG 1.1//EN" "http://www.w3.org/Graphics/SVG/1.1/DTD/svg11.dtd"><svg t="1707967147121" class="icon" viewBox="0 0 1048 1024" version="1.1" xmlns="http://www.w3.org/2000/svg" p-id="26690" xmlns:xlink="http://www.w3.org/1999/xlink" width="204.6875" height="200"><path d="M1046.907617 141.45413c2.497854-27.148781-18.813213-48.219697-45.954581-45.477246-127.289742-2.032378-254.567625 0-381.97596-0.72045V0h-71.207364C365.236633 32.51509 182.584963 63.581869 0.051884 95.489172v833.260323c181.579891 31.782781 363.279858 62.145418 544.509901 95.249023h74.416774v-95.254952c119.18543 0 238.253749-0.232738 357.440661 0.358742 20.245217-0.953187 42.74369 0.592962 60.129345-11.789574 13.934615-21.314031 10.359052-47.986959 11.562766-72.034547-1.686978-234.569971 0.81977-469.252604-1.203714-703.824057zM397.269941 673.817198c-19.88351 10.359052-49.650219-0.477335-73.230848 1.185925-15.836542-78.813589-34.289529-157.163185-48.450953-236.347376-13.942027 76.919074-32.03479 153.132523-47.988442 229.568334a4458.771392 4458.771392 0 0 1-68.825138-4.174455c-19.766399-104.777927-42.989769-208.836888-61.441275-313.859412a5058.40159 5058.40159 0 0 1 61.208537-2.497854c12.255049 75.848777 26.185217 151.33733 36.911906 227.303217 16.791211-77.872261 33.929305-155.744522 50.604888-233.616783 22.627443-1.30007 45.243026-2.256222 67.871951-3.452523 15.836542 80.370115 32.019966 160.627567 49.175849 240.63894 13.454315-82.629302 28.336188-165.022901 42.745173-247.545469 23.813367-0.8257 47.626735-2.139112 71.324474-3.569633-26.919008 115.36527-50.498155 231.701515-79.906122 346.367089z m614.636592 219.204834H618.978559v-95.254952h309.579706v-47.626735H618.978559v-59.536383h309.579706v-47.620806H618.978559v-59.533418h309.579706v-47.632665H618.978559V476.282172h309.579706v-47.625252H618.978559v-59.536383h309.579706v-47.626735H618.978559v-59.533419h309.579706v-47.626735H618.978559V130.98538h392.927974z" fill="#6AABFF" p-id="26691"></path></svg>