<?xml version="1.0" standalone="no"?><!DOCTYPE svg PUBLIC "-//W3C//DTD SVG 1.1//EN" "http://www.w3.org/Graphics/SVG/1.1/DTD/svg11.dtd"><svg t="1707966538101" class="icon" viewBox="0 0 1024 1024" version="1.1" xmlns="http://www.w3.org/2000/svg" p-id="22752" xmlns:xlink="http://www.w3.org/1999/xlink" width="200" height="200"><path d="M381.30689 535.14317A53.514317 53.514317 0 0 0 346.140339 525.691291h-56.989273v77.839006H346.140339a55.59929 55.59929 0 0 0 35.583545-9.729876 36.487034 36.487034 0 0 0 11.397855-29.467624 33.568072 33.568072 0 0 0-11.814849-29.189627z" fill="#6AABFF" p-id="22753"></path><path d="M672.021679 0v0.972988L223.960898 0A127.947867 127.947867 0 0 0 95.943532 128.017366v768.034698a127.947867 127.947867 0 0 0 128.017366 127.947867h576.078147a128.017366 128.017366 0 0 0 128.017367-127.947867V256.034732zM347.113326 623.268045h-58.101258v81.174964H266.216359V505.953542h81.174964q68.248129 0 68.248129 58.379255t-68.526126 58.935248z m238.24296 53.931312q-25.019681 27.174153-71.723085 27.243652h-68.94312V505.953542h71.167092q47.328896 0 71.167091 27.243653 22.309215 25.367176 22.239716 72.001081t-23.907694 72.001081z m188.481594-151.508066H663.751285v66.719148h104.248669v19.737748h-104.248669v92.294822h-22.795709V505.953542h132.882304z m-37.738018-269.656559a64.147681 64.147681 0 0 1-64.078183-64.078182V63.939184l192.095549 192.095548z" fill="#6AABFF" p-id="22754"></path><path d="M512.243219 525.691291h-44.757429v159.01397h42.255461q38.711006 0 58.379254-20.849734c12.440341-13.899823 18.625762-33.151077 18.625763-58.935248s-5.698927-46.21691-17.23578-59.213244-31.274601-20.015745-57.267269-20.015744z" fill="#6AABFF" p-id="22755"></path></svg>