<?xml version="1.0" standalone="no"?><!DOCTYPE svg PUBLIC "-//W3C//DTD SVG 1.1//EN" "http://www.w3.org/Graphics/SVG/1.1/DTD/svg11.dtd"><svg t="1707967571496" class="icon" viewBox="0 0 1028 1024" version="1.1" xmlns="http://www.w3.org/2000/svg" p-id="28517" xmlns:xlink="http://www.w3.org/1999/xlink" width="200.78125" height="200"><path d="M842.4 381.6c-4-80.8-72.8-149.6-153.6-152.8v153.6c51.2 0 102.4 0 153.6-0.8z m184.8-222.4c2.4-27.2-18.4-48-45.6-45.6-124.8-1.6-249.6 0-374.4-0.8v-104.8h-66.4c-180.8 30.4-360.8 62.4-540.8 93.6v817.6c178.4 31.2 356.8 60.8 534.4 93.6h72.8v-116.8h350.4c20-0.8 42.4 0.8 59.2-12 13.6-20.8 10.4-47.2 11.2-70.4-1.6-217.6 0.8-436-0.8-654.4z m-684.8 390.4c-26.4 13.6-56.8 12-85.6 10.4V696.8c-23.2-1.6-46.4-4-69.6-5.6-0.8-124.8-1.6-249.6 0-374.4 63.2 3.2 140-24.8 192.8 22.4 50.4 60.8 36.8 173.6-37.6 210.4z m650.4 311.2h-385.6v-93.6h280.8V720.8h-280.8v-58.4h280.8v-46.4h-280v-68.8c46.4 14.4 99.2 14.4 140-13.6 44.8-26.4 68-76.8 72-127.2h-153.6c0-51.2 0.8-101.6-0.8-152l-57.6 12v-116.8h385.6c-0.8 236-0.8 473.6-0.8 711.2z m-736-480.8c0 39.2-0.8 78.4 1.6 117.6 23.2-2.4 53.6-0.8 66.4-24.8 11.2-24 12-53.6-1.6-76.8-15.2-21.6-44-16.8-66.4-16z" fill="#6AABFF" p-id="28518"></path></svg>