<?xml version="1.0" standalone="no"?><!DOCTYPE svg PUBLIC "-//W3C//DTD SVG 1.1//EN" "http://www.w3.org/Graphics/SVG/1.1/DTD/svg11.dtd"><svg t="1707965259467" class="icon" viewBox="0 0 1024 1024" version="1.1" xmlns="http://www.w3.org/2000/svg" p-id="7347" xmlns:xlink="http://www.w3.org/1999/xlink" width="200" height="200"><path d="M697.598006 272.002526h172.879419a49.439834 49.439834 0 0 0 34.719883-84.639715L732.23789 14.323392A49.439834 49.439834 0 0 0 647.998173 49.523274V222.402693a49.439834 49.439834 0 0 0 49.599833 49.599833z" fill="#6AABFF" p-id="7348"></path><path d="M855.997474 320.002365H663.998119a63.999785 63.999785 0 0 1-63.999785-63.999785V64.003225a63.999785 63.999785 0 0 0-63.999785-63.999785H167.999785a63.999785 63.999785 0 0 0-63.999785 63.999785v895.99699a63.999785 63.999785 0 0 0 63.999785 63.999785h687.997689a63.999785 63.999785 0 0 0 63.999785-63.999785V384.00215a63.999785 63.999785 0 0 0-63.999785-63.999785zM571.678429 495.041777H511.998629v59.5998h59.6798v59.5998H511.998629v59.599799h59.6798v178.879399H452.39883v-119.199599H511.998629v-59.6798h-59.599799v-59.599799H511.998629v-59.5998h-59.599799v-59.5998H511.998629v-59.5998h-59.599799V376.002177H511.998629v59.5998h59.6798z" fill="#6AABFF" p-id="7349"></path></svg>