<?xml version="1.0" standalone="no"?><!DOCTYPE svg PUBLIC "-//W3C//DTD SVG 1.1//EN" "http://www.w3.org/Graphics/SVG/1.1/DTD/svg11.dtd"><svg t="1706281963825" class="icon" viewBox="0 0 1024 1024" version="1.1" xmlns="http://www.w3.org/2000/svg" p-id="995" xmlns:xlink="http://www.w3.org/1999/xlink" width="200" height="200"><path d="M842.666667 458.666667c-17.066667 0-32 14.933333-32 32l0 426.666667c0 0-2.133333 0-2.133333 0-4.266667 0-6.4 0-10.666667 0L704 917.333333 704 595.2c0-34.133333-27.733333-61.866667-61.866667-61.866667l-196.266667 0c-34.133333 0-61.866667 27.733333-61.866667 61.866667L384 917.333333l-128 0L256 490.666667c0-17.066667-14.933333-32-32-32S192 473.6 192 490.666667l0 445.866667c0 2.133333 0 4.266667 0 6.4 4.266667 19.2 21.333333 38.4 51.2 38.4l202.666667 0 196.266667 0 155.733333 0c2.133333 0 4.266667 0 8.533333 0 4.266667 0 8.533333 0 10.666667 0 14.933333 0 32-2.133333 44.8-14.933333 8.533333-8.533333 12.8-19.2 12.8-29.866667L874.666667 490.666667C874.666667 473.6 859.733333 458.666667 842.666667 458.666667zM448 917.333333 448 597.333333l192 0 0 320L448 917.333333z" fill="#464D5A" p-id="996"></path><path d="M970.666667 403.2 554.666667 59.733333c-10.666667-8.533333-27.733333-10.666667-40.533333 0l-450.133333 341.333333c-14.933333 10.666667-17.066667 29.866667-6.4 44.8 6.4 8.533333 14.933333 12.8 25.6 12.8 6.4 0 12.8-2.133333 19.2-6.4L533.333333 125.866667l398.933333 326.4c12.8 10.666667 34.133333 8.533333 44.8-4.266667C987.733333 433.066667 985.6 413.866667 970.666667 403.2z" fill="#464D5A" p-id="997"></path></svg>