<?xml version="1.0" standalone="no"?><!DOCTYPE svg PUBLIC "-//W3C//DTD SVG 1.1//EN" "http://www.w3.org/Graphics/SVG/1.1/DTD/svg11.dtd"><svg t="1706280456237" class="icon" viewBox="0 0 2133 1024" version="1.1" xmlns="http://www.w3.org/2000/svg" p-id="852" xmlns:xlink="http://www.w3.org/1999/xlink" width="416.6015625" height="200"><path d="M2099.029333 457.045333l-255.488 255.744a41.898667 41.898667 0 0 1-30.208 12.544 41.898667 41.898667 0 0 1-30.208-12.544l-255.488-255.744a40.704 40.704 0 0 1-9.898666-45.226666 47.104 47.104 0 0 1 40.106666-27.818667h510.805334a46.933333 46.933333 0 0 1 40.192 27.818667 40.618667 40.618667 0 0 1-9.813334 45.226666zM67.925333 112.981333A52.224 52.224 0 0 1 67.925333 8.533333h1053.184a52.224 52.224 0 0 1 0 104.448H67.925333z m0 453.461334a52.224 52.224 0 0 1 0-104.448h1053.184a52.224 52.224 0 0 1 0 104.448H67.925333z m0 453.461333a52.224 52.224 0 0 1 0-104.448h1053.184a52.224 52.224 0 0 1 0 104.448H67.925333z" fill="#464D5A" p-id="853"></path></svg>